<mxfile host="app.diagrams.net" modified="2021-08-12T22:04:07.315Z" agent="5.0 (Windows NT 10.0; Win64; x64) AppleWebKit/537.36 (KHTML, like Gecko) Chrome/92.0.4515.131 Safari/537.36" etag="Zd4hFZiSqPtjCZyoI-sW" version="14.9.6" type="github">
  <diagram id="FrKrD6kRUA2nPL6c1ak3" name="Page-1">
    <mxGraphModel dx="1422" dy="737" grid="1" gridSize="10" guides="1" tooltips="1" connect="1" arrows="1" fold="1" page="1" pageScale="1" pageWidth="850" pageHeight="1100" math="0" shadow="0">
      <root>
        <mxCell id="0" />
        <mxCell id="1" parent="0" />
        <mxCell id="qnNMIZ_E7A0Bu9t183FQ-13" value="" style="strokeWidth=1;shadow=0;dashed=0;align=center;html=1;shape=mxgraph.mockup.containers.browserWindow;rSize=0;strokeColor=#666666;strokeColor2=#008cff;strokeColor3=#c4c4c4;mainText=,;recursiveResize=0;" vertex="1" parent="1">
          <mxGeometry x="40" y="30" width="770" height="860" as="geometry" />
        </mxCell>
        <mxCell id="qnNMIZ_E7A0Bu9t183FQ-14" value="Page 1" style="strokeWidth=1;shadow=0;dashed=0;align=center;html=1;shape=mxgraph.mockup.containers.anchor;fontSize=17;fontColor=#666666;align=left;" vertex="1" parent="qnNMIZ_E7A0Bu9t183FQ-13">
          <mxGeometry x="60" y="12" width="110" height="26" as="geometry" />
        </mxCell>
        <mxCell id="qnNMIZ_E7A0Bu9t183FQ-15" value="https://www.draw.io" style="strokeWidth=1;shadow=0;dashed=0;align=center;html=1;shape=mxgraph.mockup.containers.anchor;rSize=0;fontSize=17;fontColor=#666666;align=left;" vertex="1" parent="qnNMIZ_E7A0Bu9t183FQ-13">
          <mxGeometry x="130" y="60" width="250" height="26" as="geometry" />
        </mxCell>
        <mxCell id="qnNMIZ_E7A0Bu9t183FQ-24" value="" style="shape=ext;double=1;rounded=1;whiteSpace=wrap;html=1;" vertex="1" parent="qnNMIZ_E7A0Bu9t183FQ-13">
          <mxGeometry x="15" y="120" width="740" height="120" as="geometry" />
        </mxCell>
        <mxCell id="qnNMIZ_E7A0Bu9t183FQ-25" value="" style="verticalLabelPosition=bottom;shadow=0;dashed=0;align=center;html=1;verticalAlign=top;strokeWidth=1;shape=mxgraph.mockup.containers.userMale;strokeColor=#666666;strokeColor2=#008cff;" vertex="1" parent="qnNMIZ_E7A0Bu9t183FQ-13">
          <mxGeometry x="20" y="260" width="100" height="100" as="geometry" />
        </mxCell>
        <mxCell id="qnNMIZ_E7A0Bu9t183FQ-26" value="&lt;img width=&quot;undefined&quot; height=&quot;undefined&quot;&gt;" style="strokeWidth=1;shadow=0;dashed=0;align=center;html=1;shape=mxgraph.mockup.containers.browserWindow;rSize=0;strokeColor=#666666;strokeColor2=#008cff;strokeColor3=#c4c4c4;mainText=,;recursiveResize=0;" vertex="1" parent="1">
          <mxGeometry x="40" y="30" width="785" height="1090" as="geometry" />
        </mxCell>
        <mxCell id="qnNMIZ_E7A0Bu9t183FQ-27" value="Page 1" style="strokeWidth=1;shadow=0;dashed=0;align=center;html=1;shape=mxgraph.mockup.containers.anchor;fontSize=17;fontColor=#666666;align=left;" vertex="1" parent="qnNMIZ_E7A0Bu9t183FQ-26">
          <mxGeometry x="60" y="12" width="110" height="26" as="geometry" />
        </mxCell>
        <mxCell id="qnNMIZ_E7A0Bu9t183FQ-28" value="https://www.draw.io" style="strokeWidth=1;shadow=0;dashed=0;align=center;html=1;shape=mxgraph.mockup.containers.anchor;rSize=0;fontSize=17;fontColor=#666666;align=left;" vertex="1" parent="qnNMIZ_E7A0Bu9t183FQ-26">
          <mxGeometry x="130" y="60" width="250" height="26" as="geometry" />
        </mxCell>
        <mxCell id="qnNMIZ_E7A0Bu9t183FQ-29" value="" style="shape=ext;double=1;rounded=1;whiteSpace=wrap;html=1;" vertex="1" parent="qnNMIZ_E7A0Bu9t183FQ-26">
          <mxGeometry x="15" y="120" width="740" height="120" as="geometry" />
        </mxCell>
      </root>
    </mxGraphModel>
  </diagram>
</mxfile>
